<svg xmlns="http://www.w3.org/2000/svg" viewBox="0 0 47.5 47.5" id="house"><defs><clipPath id="a"><path d="M0 38h38V0H0v38Z"></path></clipPath></defs><g clip-path="url(#a)" transform="matrix(1.25 0 0 -1.25 0 47.5)"><path fill="#ffcc4d" d="M6.942 4c-.138 4.657-.507 8-.942 8-.435 0-.804-3.343-.942-8h1.884Z"></path><path fill="#a6d388" d="M17 16.577C17 11.532 14.762 10 12 10c-2.761 0-5 1.532-5 6.577C7 21.621 11 29 12 29s5-7.379 5-12.423"></path><path fill="#77b255" d="M11 17.269C11 11.695 8.762 10 6 10c-2.761 0-5 1.695-5 7.269C1 22.846 5 31 6 31s5-8.154 5-13.731"></path><path fill="#ffe8b6" d="m9 21 13 13 13-13V5H9v16Z"></path><path fill="#fff" d="M23 5h-1v16h1V5z"></path><path fill="#ffcc4d" d="M10 5H9v16h1V5zm24 0h1v16h-1V5z"></path><path fill="#66757f" d="M35 20a.997.997 0 0 0-.707.293L22 32.586 9.707 20.293a.999.999 0 1 0-1.414 1.414l13 13a.999.999 0 0 0 1.414 0l13-13A.999.999 0 0 0 35 20"></path><path fill="#66757f" d="M22 20a.999.999 0 0 0-.707 1.707l6.5 6.5a.999.999 0 1 0 1.414-1.414l-6.5-6.5A.997.997 0 0 0 22 20"></path><path fill="#c1694f" d="M18 5h-4v6h4V5z"></path><path fill="#55acee" d="M30 7h-3v4h3V7z"></path><path fill="#55acee" d="M26 7h2v4h-2V7zm5 0h-2v4h2V7zm-13 9h-4v4h4v-4zm13 0h-5v4h5v-4z"></path><path fill="#5c913b" d="M37 3a2 2 0 0 0-2-2H3a2 2 0 0 0 0 4h32a2 2 0 0 0 2-2"></path><path fill="#fff" d="M18 1h-4v4h4V1z"></path></g></svg>